<svg version="1.1" id="Layer_1" xmlns="http://www.w3.org/2000/svg" xmlns:xlink="http://www.w3.org/1999/xlink" x="0px" y="0px"
	 width="100%" viewBox="0 0 200 200" enable-background="new 0 0 200 200" xml:space="preserve">
<path fill="#A3F1F9" opacity="1.000000" stroke="none" 
	d="
M142.775040,156.534775 
	C144.224915,160.136276 142.483826,162.417877 139.807877,163.524094 
	C135.695633,165.224060 131.707703,166.309875 128.016876,169.582764 
	C124.970230,172.284439 119.693413,173.195068 115.381035,174.666840 
	C105.263100,178.119995 95.425507,182.183960 84.182526,182.348511 
	C68.712593,182.574951 57.797562,176.212402 49.908016,163.596527 
	C44.403767,154.794891 40.950672,145.063553 37.600578,135.300339 
	C36.645847,132.517960 33.686684,132.137177 31.549530,131.033066 
	C24.136875,127.203499 18.718121,121.350182 17.366911,113.394882 
	C15.987912,105.275970 15.891288,96.723679 19.154716,88.748367 
	C20.142969,86.333221 22.478516,85.211578 25.131540,84.967957 
	C28.384819,84.669220 31.026699,85.824493 32.815033,88.504723 
	C33.948853,90.204002 34.716675,92.147491 36.239170,95.143547 
	C37.905041,86.732979 40.764217,79.957703 44.731564,74.024857 
	C50.297981,65.700737 57.286594,58.166359 66.036331,53.217934 
	C71.201103,50.296997 72.731842,45.678810 74.303596,41.261002 
	C75.807793,37.033073 77.684883,34.868465 82.715584,34.807285 
	C79.434334,33.105690 77.412949,31.162069 79.057587,27.673666 
	C80.789833,23.999470 82.700676,20.320164 87.335045,20.035841 
	C91.981789,19.750761 96.659782,19.994244 101.323814,19.964649 
	C104.071625,19.947214 106.017250,21.186132 105.934402,23.959332 
	C105.843346,27.007454 107.471672,26.889801 109.648682,27.021536 
	C114.363907,27.306862 118.281479,28.733603 119.110565,34.346462 
	C119.471230,36.788166 125.155281,38.166435 128.994781,36.863300 
	C131.744308,35.930103 132.208755,34.035961 130.984573,31.492941 
	C130.255005,29.977379 130.118637,28.226276 131.640503,27.210981 
	C133.935410,25.679958 136.713028,25.058529 139.100174,26.643871 
	C144.181992,30.018810 148.198807,34.563347 147.884048,40.973755 
	C147.625122,46.247532 148.463272,50.092907 153.723175,52.396248 
	C156.254929,53.504910 157.013474,56.505882 157.865082,58.914474 
	C158.935104,61.940773 153.967743,65.915535 150.766220,64.138031 
	C146.485962,61.761593 142.031326,61.886787 137.422394,61.348011 
	C137.613510,64.704147 139.364578,68.166138 136.227173,71.254158 
	C135.492661,71.977104 135.509354,74.274536 136.981934,75.311974 
	C138.592453,76.446587 140.369949,77.596840 142.468246,76.711655 
	C144.278961,75.947800 145.960190,74.883186 147.740540,74.039970 
	C152.859802,71.615410 158.221497,73.713867 159.897217,79.190468 
	C160.603439,81.498512 161.472778,82.004120 163.797760,82.512711 
	C167.968704,83.425110 170.449982,86.251877 170.102158,91.106354 
	C169.766190,95.795883 170.921646,100.740852 166.992599,104.573135 
	C166.072006,105.471054 166.805237,105.586288 167.497421,106.155746 
	C172.169250,109.999252 172.203751,110.786766 168.417404,115.517769 
	C177.347992,118.642052 180.490341,122.610680 180.025314,130.203430 
	C179.974899,131.026672 180.004379,132.498657 179.723953,132.568115 
	C174.930161,133.755478 173.476151,138.855972 169.669327,141.036469 
	C167.090240,142.513718 162.975525,139.610123 162.975952,136.646042 
	C162.976212,134.813751 163.070801,132.977097 162.970093,131.150833 
	C162.911407,130.086304 163.657623,128.637421 161.307388,128.575607 
	C159.262604,128.521835 159.006775,129.482224 159.062698,130.878281 
	C159.217041,134.730438 156.677231,136.276443 153.500732,137.532837 
	C157.934235,139.800537 158.014664,142.485931 153.532257,145.900894 
	C154.953110,146.981873 156.152786,147.890564 157.348129,148.804916 
	C159.515839,150.463074 160.546494,152.402130 158.974457,155.053604 
	C157.454147,157.617844 155.562836,159.730316 152.267456,158.979614 
	C149.118683,158.262314 146.058136,157.157639 142.775040,156.534775 
z"/>
<path fill="#29292B" opacity="1.000000" stroke="none" 
	d="
M59.786678,171.076874 
	C59.465130,170.950027 59.250282,170.596954 59.166691,170.534546 
	C58.627316,169.713913 58.031532,169.070282 57.177334,168.217102 
	C56.934872,167.994522 56.995663,168.013763 56.977348,168.039871 
	C56.049099,167.076126 55.445515,165.815079 54.141041,164.741119 
	C54.091255,164.235413 54.122959,164.025192 54.078373,163.644684 
	C53.909607,162.687012 54.265266,162.098175 55.147392,161.416702 
	C56.149471,161.006821 56.850586,161.023270 57.877594,161.195572 
	C59.202278,161.684875 60.085030,161.614868 61.336876,159.871277 
	C65.121704,153.074860 61.532356,140.102692 55.789230,136.917297 
	C52.123775,134.884277 49.630554,136.201950 48.751122,140.486145 
	C48.405010,142.172256 48.955746,144.291641 46.481773,145.337799 
	C43.391037,143.888184 43.936554,140.661819 42.238434,138.219788 
	C41.998440,137.941788 41.980232,138.014664 42.016533,138.024292 
	C41.422665,137.276764 42.061485,136.220383 41.215233,135.206329 
	C40.984577,134.952881 40.967743,135.024506 41.003338,135.033783 
	C40.317497,134.159363 41.203320,132.870895 40.099007,131.769684 
	C39.915966,131.501862 39.980755,131.514420 39.964684,131.543243 
	C39.765472,130.805664 39.188744,130.519989 38.253044,130.141022 
	C38.013412,129.901947 38.044270,129.968201 38.055336,129.933380 
	C35.482956,128.893875 32.926025,127.832230 30.302021,126.147446 
	C30.061558,125.896980 30.014183,125.949730 30.049629,125.950500 
	C29.795252,125.783409 29.540722,125.572884 29.153597,125.136345 
	C28.985710,124.952995 28.986668,125.016357 29.017971,125.011436 
	C28.798943,124.792984 28.558830,124.568527 28.141138,124.173355 
	C27.953341,124.013565 27.965641,124.034698 27.976311,124.040672 
	C27.769377,123.788368 27.498407,123.612160 26.979107,123.369286 
	C26.550446,122.980949 26.388481,122.699982 26.164776,122.171982 
	C26.031296,121.966316 25.999548,122.000267 26.020481,121.990219 
	C25.353016,121.450325 24.950745,120.697952 24.276884,119.756927 
	C23.768106,119.216309 23.536020,118.867996 23.221447,118.196381 
	C23.068083,117.919334 23.000324,117.973541 23.041386,117.959801 
	C21.847885,116.099792 21.341440,113.954216 20.549782,111.487953 
	C19.002443,106.305458 19.126701,101.539787 20.502537,96.351440 
	C20.719027,93.681297 22.412140,91.919159 22.819443,89.327423 
	C23.074537,89.001846 23.005169,89.004837 23.008387,89.039406 
	C23.135040,88.921478 23.258476,88.768982 23.618168,88.441017 
	C27.392572,85.965988 28.438967,89.084656 29.769171,91.135605 
	C31.775589,94.229141 32.482670,98.246773 36.589882,100.181549 
	C38.471458,100.491478 38.732224,99.449501 39.018673,98.235588 
	C40.026314,93.965416 41.402077,89.795425 42.834129,85.306534 
	C43.080460,85.039932 43.000076,85.002617 43.038345,85.025528 
	C43.432823,84.568687 43.487755,83.978409 43.877556,83.234360 
	C44.086369,83.034348 44.001598,83.016792 44.040600,83.036224 
	C44.312424,82.682480 44.488266,82.283707 44.771248,81.572006 
	C45.635315,80.399910 45.996948,79.348381 46.531258,78.004150 
	C49.588028,73.320999 52.575230,69.003624 56.737778,65.198120 
	C57.020378,65.000168 56.993881,64.993759 56.996773,65.007080 
	C57.217567,64.782593 57.442940,64.552094 57.861050,64.173492 
	C58.046326,64.018097 58.006828,63.974049 57.989029,63.997681 
	C58.207260,63.790623 58.442532,63.559166 58.864265,63.165009 
	C59.051483,63.003082 58.993317,62.993423 58.997765,63.022568 
	C59.207573,62.795105 59.431171,62.555523 59.865891,62.180344 
	C60.058773,62.027718 59.998417,62.037136 60.023582,62.054451 
	C60.216801,61.790085 60.426498,61.543880 60.883148,61.202362 
	C61.088451,61.071587 61.018383,61.008785 61.040611,61.050232 
	C61.215199,60.793232 61.422302,60.539463 61.901436,60.212746 
	C62.118732,60.095123 62.045509,60.051655 62.059044,60.092026 
	C63.096951,59.049164 64.422676,58.360592 65.824440,57.249924 
	C66.067551,57.046623 66.009277,57.012329 66.019806,57.044456 
	C66.851135,56.315830 67.798592,55.772308 69.134735,55.243988 
	C69.742271,54.775803 70.111649,54.547112 70.794174,54.202919 
	C71.071625,54.029720 71.010048,54.011242 71.012192,54.043320 
	C71.555008,53.532211 72.298943,53.196285 72.864670,52.263660 
	C73.073563,52.061680 73.002396,52.003700 73.040504,52.028877 
	C74.252647,50.554089 74.717461,48.681145 75.881363,46.778091 
	C76.067284,46.478111 76.003387,46.507866 76.018723,46.539597 
	C77.697159,44.178459 78.141792,41.231895 79.895973,38.493160 
	C80.662956,38.351170 81.536354,38.506439 81.530251,38.558350 
	C80.772346,45.007553 87.236198,47.144573 89.459091,51.797089 
	C89.586319,52.063354 90.360428,52.020542 91.196457,52.074799 
	C93.565231,51.332584 94.772926,49.520702 96.779999,48.244263 
	C97.031189,48.012852 96.978149,48.011932 96.988571,48.036324 
	C97.201859,47.802147 97.424034,47.561398 97.852448,47.178719 
	C98.039375,47.018970 97.999832,46.998863 98.013580,47.016205 
	C99.474655,44.582623 99.231697,42.031494 98.274109,39.190960 
	C98.071350,38.931892 98.004860,39.000511 98.042984,38.971367 
	C97.788956,38.781612 97.537651,38.572025 97.206543,38.098396 
	C97.085899,37.883343 97.065002,37.952648 97.100914,37.948128 
	C96.562561,37.601784 96.517647,36.981720 96.152710,36.202221 
	C95.963875,35.973839 95.959801,36.037174 95.991531,36.037769 
	C95.792305,35.795471 95.557228,35.556629 95.131165,35.153801 
	C94.943710,34.986351 94.957535,35.059910 94.994598,35.054726 
	C94.599922,34.581341 93.988899,34.513355 93.212860,34.125519 
	C92.996849,33.919521 92.986580,33.983517 93.009689,33.960793 
	C90.263374,31.401827 86.834557,31.388273 83.065346,31.193615 
	C82.463165,30.192390 82.493591,29.396685 82.873352,28.318077 
	C83.162636,28.039032 83.087173,28.056602 83.098175,28.093748 
	C84.476044,26.646730 85.442429,24.853626 87.103523,23.230171 
	C91.361015,22.901838 95.306450,23.709333 99.267151,22.966665 
	C101.242714,22.596230 102.425232,23.568735 102.315857,25.739822 
	C102.136040,29.309237 104.345886,30.431326 107.356789,30.291052 
	C112.448692,30.053822 115.740585,31.796938 115.907074,37.365986 
	C115.964790,39.296673 117.109184,39.906593 118.768959,40.056461 
	C121.394997,40.293575 124.020363,40.538094 127.096939,40.715614 
	C128.335480,40.392677 129.223694,40.649967 130.267899,40.085018 
	C130.565613,39.990192 130.485825,39.954578 130.467072,39.994026 
	C131.326569,39.766491 132.102997,39.350300 132.857849,38.315998 
	C133.096893,38.079758 132.995346,38.055058 133.042145,38.079399 
	C136.483490,35.734535 135.402252,32.576492 134.873444,29.271935 
	C142.882477,31.103422 147.400589,43.662556 142.610519,49.868706 
	C141.530258,51.268326 140.089035,51.486828 139.695862,49.651932 
	C139.057083,46.670685 137.499847,44.870663 134.598770,45.575062 
	C131.740997,46.268944 128.871948,47.718788 128.381210,51.203243 
	C128.178436,52.642952 127.563507,53.261333 126.281990,53.515491 
	C121.505302,54.462826 120.344826,58.437523 119.171608,62.257439 
	C118.105881,65.727364 119.967896,66.512764 122.890152,65.597321 
	C125.266525,64.852890 127.499687,63.638451 129.887207,62.945461 
	C133.366531,61.935577 134.646942,63.303383 133.644699,66.703003 
	C133.554077,67.010422 133.238007,67.250153 133.141907,67.557373 
	C131.824341,71.769432 131.429550,76.031906 135.463913,78.893478 
	C139.059128,81.443604 142.983322,80.787544 146.702026,78.518768 
	C151.747787,75.440361 155.329468,76.663139 156.666351,81.692665 
	C157.362579,84.311913 156.507980,85.154663 153.946426,84.573265 
	C152.008728,84.133461 149.395874,81.266006 148.559860,85.499954 
	C147.867325,89.007202 149.420258,91.349411 153.872925,91.276138 
	C155.611679,91.816505 156.486099,90.876373 157.782166,90.237457 
	C158.076523,90.062119 158.018280,90.023911 158.022186,90.058517 
	C159.388702,89.157448 160.822250,88.299133 161.959274,86.604660 
	C163.828903,85.944092 164.858139,86.616776 165.494980,87.978447 
	C167.011307,91.220749 165.586746,101.112991 162.782883,103.495705 
	C159.755020,106.068771 160.355896,107.499458 163.688461,108.470070 
	C167.329956,109.530647 166.963852,111.160683 165.142380,113.823341 
	C163.342529,116.454391 162.539261,119.006989 167.515686,119.338120 
	C170.683716,119.548912 173.677109,120.950668 175.084167,124.273537 
	C176.370621,127.311623 178.262634,130.406464 173.170212,132.053833 
	C170.546219,132.902664 170.861526,136.892792 167.586731,137.701248 
	C165.271561,136.049896 166.264053,133.762543 166.001419,131.739792 
	C165.694473,129.375595 166.784546,126.796906 164.579529,124.446213 
	C159.525116,123.516167 156.297073,125.458977 155.425278,130.100906 
	C154.836060,133.238235 153.370285,133.817764 150.618195,133.404068 
	C147.197525,132.889877 146.259888,135.637833 145.912628,137.988693 
	C145.434433,141.226257 148.026932,140.496414 149.997269,140.421661 
	C151.379349,140.369217 153.170609,140.775772 151.759308,142.529984 
	C149.157639,145.763855 151.132523,147.657623 153.247101,149.687668 
	C154.679504,151.062820 156.480957,152.257874 154.773026,154.640961 
	C153.104355,156.969284 151.253418,155.800339 149.495956,154.953064 
	C145.756027,153.150040 142.132355,151.041672 137.699402,151.855240 
	C135.842361,152.196060 133.823242,152.585770 133.523224,154.706528 
	C133.258896,156.574966 135.457062,156.639954 136.555405,157.519760 
	C137.393814,158.191360 139.264343,157.776627 139.096069,159.377975 
	C138.952454,160.744995 137.410599,160.599213 136.349411,160.972565 
	C132.483597,162.332672 127.486099,161.693924 125.704315,166.839737 
	C109.902260,172.732407 94.716614,181.156326 76.914940,178.869156 
	C74.964798,178.618622 73.078568,177.870605 70.829453,177.217407 
	C69.213577,176.433548 67.700294,176.331863 66.240540,175.197937 
	C65.947083,174.987488 65.968987,175.056183 66.003731,175.046585 
	C65.598091,174.581451 64.988708,174.512833 64.207062,174.132690 
	C63.986401,173.931961 64.000336,174.001404 64.035065,173.994492 
	C63.800503,173.790833 63.551670,173.570938 63.132706,173.167160 
	C62.942112,173.006424 62.950607,173.066147 62.980465,173.061890 
	C62.118500,172.321396 61.138733,171.722839 59.786678,171.076874 
z"/>
<path fill="#47704C" opacity="1.000000" stroke="none" 
	d="
M86.071648,42.548698 
	C85.973289,39.790131 86.497795,37.319466 84.265915,35.329933 
	C90.049232,34.912575 93.295868,37.089474 95.359932,41.714520 
	C96.279556,43.775192 95.074104,44.881554 94.234390,46.053921 
	C93.134911,47.588963 91.626846,47.155239 90.435974,45.885841 
	C89.205315,44.574043 87.015602,44.707985 86.071648,42.548698 
z"/>
<path fill="#3C384B" opacity="1.000000" stroke="none" 
	d="
M148.118195,59.661407 
	C145.830933,58.408218 144.028412,56.752674 141.478745,58.043365 
	C140.680984,58.447208 139.440186,58.560780 138.989548,57.329060 
	C138.645309,56.388184 139.505127,55.873116 140.095642,55.325481 
	C143.841217,51.851891 148.041107,51.754105 151.361069,55.187435 
	C152.565765,56.433289 154.694794,57.773239 153.703140,59.654922 
	C152.458466,62.016735 150.230148,60.341621 148.118195,59.661407 
z"/>
<path fill="#47704C" opacity="1.000000" stroke="none" 
	d="
M136.209808,52.696915 
	C135.759399,60.572132 129.211243,59.107971 124.750320,60.775139 
	C123.668457,59.939930 124.264641,58.975594 124.816017,58.679779 
	C128.518951,56.693157 132.101532,54.680714 133.900940,50.522980 
	C134.210205,49.808361 134.625397,49.988052 136.209808,52.696915 
z"/>
<path fill="#D328DE" opacity="1.000000" stroke="none" 
	d="
M42.708817,85.047424 
	C41.997459,90.062225 40.969059,95.097382 39.790531,100.097160 
	C39.518318,101.252007 38.401360,101.280777 37.140564,100.620621 
	C39.214069,95.411186 39.089588,89.633598 42.708817,85.047424 
z"/>
<path fill="#C33AD3" opacity="1.000000" stroke="none" 
	d="
M56.674255,64.918854 
	C54.302433,69.428635 50.145950,72.831108 47.752991,77.870193 
	C47.240795,78.228722 46.966206,78.377876 46.405376,78.155846 
	C48.163078,72.397316 52.144680,68.537842 56.674255,64.918854 
z"/>
<path fill="#E03BEE" opacity="1.000000" stroke="none" 
	d="
M164.433090,124.571274 
	C167.131668,124.066910 167.211212,126.032639 167.192749,128.099335 
	C167.166779,131.008881 167.166489,133.918625 167.205109,137.269928 
	C164.657257,137.705627 165.207794,135.716385 165.032379,134.184006 
	C164.680161,131.106613 165.787567,127.964455 164.433090,124.571274 
z"/>
<path fill="#C935D8" opacity="1.000000" stroke="none" 
	d="
M134.798019,29.029373 
	C136.092926,32.345287 137.906281,35.741947 133.437851,38.185745 
	C135.640411,35.378819 132.546738,31.805275 134.798019,29.029373 
z"/>
<path fill="#DD3FEF" opacity="1.000000" stroke="none" 
	d="
M41.875462,138.318604 
	C45.032154,139.181595 44.120716,142.587296 45.831627,144.979462 
	C46.766872,145.896744 46.980785,146.701157 46.776924,148.040039 
	C46.448074,148.688416 46.255676,148.915527 45.722931,148.853668 
	C44.172554,145.274933 42.962517,141.985184 41.875462,138.318604 
z"/>
<path fill="#EF22F7" opacity="1.000000" stroke="none" 
	d="
M21.250402,94.831429 
	C21.454939,100.312378 21.354879,105.573654 21.299671,111.284042 
	C21.502985,112.236664 21.395243,112.663017 20.610371,113.018715 
	C20.016550,112.396065 19.789764,111.754158 19.476561,110.782181 
	C18.759449,106.488144 18.870155,102.516937 19.430378,98.069794 
	C19.689291,96.855690 19.791428,96.114677 20.046148,95.031494 
	C20.447756,94.663467 20.696779,94.637619 21.250402,94.831429 
z"/>
<path fill="#BD43D3" opacity="1.000000" stroke="none" 
	d="
M30.141563,126.238495 
	C33.041714,126.166801 35.188114,128.425156 38.010185,129.552322 
	C34.760307,130.426193 32.472431,128.546860 30.141563,126.238495 
z"/>
<path fill="#CD3CDF" opacity="1.000000" stroke="none" 
	d="
M79.876305,38.184891 
	C79.023987,40.857208 79.222404,44.105083 76.315079,46.309906 
	C76.519264,43.469662 76.792404,40.279652 79.876305,38.184891 
z"/>
<path fill="#D430E1" opacity="1.000000" stroke="none" 
	d="
M97.965416,39.377335 
	C101.796577,41.264549 100.158997,44.074966 98.402603,46.948044 
	C97.971382,44.629959 97.915436,42.226364 97.965416,39.377335 
z"/>
<path fill="#8A4D9A" opacity="1.000000" stroke="none" 
	d="
M56.491417,161.521484 
	C55.746700,162.307388 55.167156,162.669281 54.326561,163.257553 
	C53.486748,162.979935 52.907990,162.475906 52.141052,161.749481 
	C51.581982,160.698792 51.476341,159.825073 51.676487,158.512634 
	C55.035381,156.553802 56.263752,158.155701 56.491417,161.521484 
z"/>
<path fill="#AA69CB" opacity="1.000000" stroke="none" 
	d="
M82.864731,30.618626 
	C86.476181,31.648663 90.120018,30.589828 92.934776,33.591454 
	C89.709084,32.877651 86.435951,31.589186 82.535446,31.508282 
	C82.288361,31.014919 82.362442,30.694887 82.864731,30.618626 
z"/>
<path fill="#9DFDFF" opacity="1.000000" stroke="none" 
	d="
M19.131702,109.655121 
	C17.419043,106.282600 17.809328,102.483551 18.699759,98.328156 
	C20.167952,101.697632 19.238770,105.516129 19.131702,109.655121 
z"/>
<path fill="#E57BFF" opacity="1.000000" stroke="none" 
	d="
M18.962246,110.146530 
	C18.887276,106.319031 18.941908,102.610489 18.951866,98.441269 
	C18.907192,97.980583 19.230509,97.759583 19.408833,97.678146 
	C20.205168,101.556122 19.996586,105.521355 19.530567,109.969757 
	C19.390142,110.452095 19.091850,110.265495 18.962246,110.146530 
z"/>
<path fill="#D138E2" opacity="1.000000" stroke="none" 
	d="
M87.041718,23.070301 
	C86.525856,25.085436 85.489632,26.965729 83.448006,28.259645 
	C83.067780,25.574841 84.710464,24.195486 87.041718,23.070301 
z"/>
<path fill="#D241E4" opacity="1.000000" stroke="none" 
	d="
M20.243481,113.376144 
	C20.480833,112.740234 20.718328,112.442497 21.150173,111.938950 
	C22.066328,113.584908 22.788132,115.436676 23.296192,117.617249 
	C20.856058,117.394241 20.978956,115.266418 20.243481,113.376144 
z"/>
<path fill="#CD3CDF" opacity="1.000000" stroke="none" 
	d="
M75.733322,46.665718 
	C76.141693,48.674980 75.097092,50.420952 73.446182,52.062393 
	C72.681786,49.798199 73.671928,48.161255 75.733322,46.665718 
z"/>
<path fill="#CA29D6" opacity="1.000000" stroke="none" 
	d="
M21.750603,94.771790 
	C21.323578,95.011566 21.092155,94.972046 20.529734,94.810928 
	C20.509508,92.688293 21.192945,90.837654 22.743559,89.102623 
	C22.698427,90.832054 22.322315,92.662270 21.750603,94.771790 
z"/>
<path fill="#BF52DB" opacity="1.000000" stroke="none" 
	d="
M161.999985,86.309624 
	C161.955597,88.488091 160.611694,89.612488 158.402420,90.193573 
	C159.113342,88.651894 159.788773,86.820824 161.999985,86.309624 
z"/>
<path fill="#CA50E3" opacity="1.000000" stroke="none" 
	d="
M96.687592,47.943485 
	C96.131317,50.148357 94.515862,51.468361 91.944649,52.083076 
	C92.991913,50.456348 94.359169,48.809566 96.687592,47.943485 
z"/>
<path fill="#D432E2" opacity="1.000000" stroke="none" 
	d="
M45.883030,78.046509 
	C46.349941,77.842445 46.580746,77.900230 47.163467,78.018799 
	C46.896099,79.258080 46.276810,80.436592 45.413330,81.837067 
	C44.947609,82.187263 44.726082,82.315483 44.191006,82.222122 
	C44.467278,80.769806 45.057098,79.539085 45.883030,78.046509 
z"/>
<path fill="#C539D7" opacity="1.000000" stroke="none" 
	d="
M65.728104,57.015991 
	C65.666290,58.863049 63.968727,59.388985 62.408165,60.258896 
	C62.536381,58.407368 64.001228,57.737152 65.728104,57.015991 
z"/>
<path fill="#DD3FEF" opacity="1.000000" stroke="none" 
	d="
M48.113388,153.414185 
	C47.001915,152.148987 46.259418,150.694641 45.449753,148.902496 
	C45.522507,148.435608 45.662430,148.306519 46.016651,147.988739 
	C46.501625,147.765472 46.772301,147.730927 47.408260,147.882889 
	C48.799152,149.088089 49.395046,150.274994 49.095009,152.159073 
	C48.807522,152.777939 48.644939,153.001480 48.113388,153.414185 
z"/>
<path fill="#BF52DB" opacity="1.000000" stroke="none" 
	d="
M157.757568,90.055161 
	C157.435471,91.820480 155.813263,91.148132 154.463959,91.361710 
	C155.370239,90.852539 156.404419,90.450371 157.757568,90.055161 
z"/>
<path fill="#D138E2" opacity="1.000000" stroke="none" 
	d="
M47.794083,153.866272 
	C47.799618,153.318741 47.854820,153.034134 47.993004,152.322662 
	C48.856068,151.606873 49.494965,151.886475 50.312233,152.677658 
	C50.661415,153.180847 50.775887,153.399231 50.963066,153.980713 
	C51.013706,154.840927 50.898384,155.314255 50.422314,156.026581 
	C49.930569,156.342072 49.691120,156.390900 49.148460,156.233734 
	C48.511421,155.394897 48.177589,154.762054 47.794083,153.866272 
z"/>
<path fill="#D645EA" opacity="1.000000" stroke="none" 
	d="
M54.037407,164.799118 
	C55.789955,164.569992 56.561356,165.768875 56.978104,167.691635 
	C55.182041,167.908325 54.819317,166.347824 54.037407,164.799118 
z"/>
<path fill="#D645EA" opacity="1.000000" stroke="none" 
	d="
M66.124527,175.317871 
	C67.286278,175.517441 68.625473,176.047394 70.230438,176.829407 
	C68.849991,177.329926 67.546982,176.573975 66.124527,175.317871 
z"/>
<path fill="#CF32DD" opacity="1.000000" stroke="none" 
	d="
M23.832026,118.990005 
	C24.812099,119.474472 25.477036,120.388573 26.091694,121.641418 
	C24.908733,122.644203 24.631815,121.567024 23.974522,120.726257 
	C23.742949,120.093155 23.629919,119.756401 23.832026,118.990005 
z"/>
<path fill="#D954F5" opacity="1.000000" stroke="none" 
	d="
M51.720428,157.395844 
	C52.029678,158.827255 52.030949,159.725037 51.992546,161.074951 
	C51.216221,160.362152 50.479565,159.197250 49.631699,157.712967 
	C49.550869,157.183273 49.581253,156.972931 49.912209,156.659058 
	C50.642605,156.540649 51.044052,156.636780 51.720428,157.395844 
z"/>
<path fill="#DD3FEF" opacity="1.000000" stroke="none" 
	d="
M40.825035,135.293121 
	C42.784599,135.155609 42.157448,136.452255 42.088470,137.757599 
	C40.864799,137.653061 40.818638,136.612289 40.825035,135.293121 
z"/>
<path fill="#C539D7" opacity="1.000000" stroke="none" 
	d="
M69.766266,54.783012 
	C68.931213,55.748890 67.814865,56.470036 66.364426,57.133881 
	C66.159103,55.751743 67.339943,55.556316 68.533478,54.981323 
	C69.060005,54.796265 69.272484,54.667271 69.766266,54.783012 
z"/>
<path fill="#DD3FEF" opacity="1.000000" stroke="none" 
	d="
M39.741173,131.888367 
	C41.250736,132.107773 41.451653,133.171509 41.073650,134.749023 
	C39.700230,134.571350 39.738361,133.367233 39.741173,131.888367 
z"/>
<path fill="#D645EA" opacity="1.000000" stroke="none" 
	d="
M56.925766,168.345932 
	C57.588699,168.597382 58.242527,169.200226 58.989723,170.137604 
	C58.360950,169.880539 57.638802,169.288940 56.925766,168.345932 
z"/>
<path fill="#D645EA" opacity="1.000000" stroke="none" 
	d="
M59.670364,171.256500 
	C60.985439,170.415176 61.783421,171.579895 62.880486,172.701996 
	C61.539001,173.453720 60.820816,172.270264 59.670364,171.256500 
z"/>
<path fill="#C935D8" opacity="1.000000" stroke="none" 
	d="
M132.753448,38.102879 
	C133.367020,39.562645 132.297241,39.841652 130.847778,40.085945 
	C131.102219,39.397652 131.756119,38.761826 132.753448,38.102879 
z"/>
<path fill="#C935D8" opacity="1.000000" stroke="none" 
	d="
M130.244965,39.981358 
	C129.762100,40.263176 128.958588,40.536163 127.851471,40.730446 
	C128.340012,40.425335 129.132172,40.198933 130.244965,39.981358 
z"/>
<path fill="#CD3CDF" opacity="1.000000" stroke="none" 
	d="
M72.746384,52.025890 
	C73.546616,53.348503 72.615471,53.745018 71.374489,54.124413 
	C71.042259,53.083622 71.743958,52.545773 72.746384,52.025890 
z"/>
<path fill="#D138E2" opacity="1.000000" stroke="none" 
	d="
M83.336807,30.483736 
	C83.110214,30.935139 82.927483,31.007883 82.479515,31.207790 
	C81.406952,30.282688 81.555748,29.286608 82.776718,28.184940 
	C83.974342,28.649721 83.474380,29.398834 83.336807,30.483736 
z"/>
<path fill="#D430E1" opacity="1.000000" stroke="none" 
	d="
M95.819382,36.300739 
	C96.839096,35.992214 97.168221,36.634029 97.306877,37.621384 
	C96.294426,37.899426 95.920334,37.334984 95.819382,36.300739 
z"/>
<path fill="#D430E1" opacity="1.000000" stroke="none" 
	d="
M93.123405,34.223614 
	C93.595970,34.093899 94.195091,34.268276 94.912933,34.746094 
	C94.437759,34.875591 93.843857,34.701649 93.123405,34.223614 
z"/>
<path fill="#D645EA" opacity="1.000000" stroke="none" 
	d="
M64.097137,174.243118 
	C64.564667,174.116898 65.142937,174.301834 65.879837,174.761871 
	C65.428276,174.876083 64.818069,174.715195 64.097137,174.243118 
z"/>
<path fill="#D328DE" opacity="1.000000" stroke="none" 
	d="
M43.712891,83.065796 
	C44.663372,83.781174 44.224937,84.381104 43.440498,85.016022 
	C42.438450,84.300293 42.830990,83.690971 43.712891,83.065796 
z"/>
<path fill="#DD3FEF" opacity="1.000000" stroke="none" 
	d="
M38.119339,130.233521 
	C38.989635,129.410248 39.580250,129.808182 39.944622,131.154678 
	C39.374165,131.236404 38.799713,130.900757 38.119339,130.233521 
z"/>
<path fill="#D74DF1" opacity="1.000000" stroke="none" 
	d="
M26.928482,122.765564 
	C27.637688,123.029266 27.883858,123.230812 28.007782,123.801453 
	C27.200289,124.524162 26.696331,124.009003 26.005913,123.228493 
	C26.075916,122.809563 26.321404,122.694527 26.928482,122.765564 
z"/>
<path fill="#D241E4" opacity="1.000000" stroke="none" 
	d="
M24.064369,118.263138 
	C24.096481,118.871346 24.045803,119.182312 23.925552,119.961594 
	C23.482443,119.813988 23.108904,119.198074 22.901724,118.250748 
	C23.372580,117.934860 23.677078,117.950386 24.064369,118.263138 
z"/>
<path fill="#CD3CDF" opacity="1.000000" stroke="none" 
	d="
M70.320709,54.972984 
	C69.847778,55.009205 69.647995,54.990673 69.147873,54.948704 
	C69.379929,54.612354 69.912323,54.299446 70.758171,54.008125 
	C70.912369,54.325890 70.753113,54.622055 70.320709,54.972984 
z"/>
<path fill="#D328DE" opacity="1.000000" stroke="none" 
	d="
M43.785812,82.291557 
	C44.092793,82.008530 44.308132,82.016525 44.846302,82.041779 
	C45.008934,82.429268 44.848732,82.799507 44.384064,83.112701 
	C43.951122,82.897972 43.822643,82.740273 43.785812,82.291557 
z"/>
<path fill="#C33AD3" opacity="1.000000" stroke="none" 
	d="
M57.722565,63.977608 
	C57.899918,64.361351 57.753506,64.704613 57.303379,65.034134 
	C57.132706,64.659302 57.265751,64.298210 57.722565,63.977608 
z"/>
<path fill="#CA29D6" opacity="1.000000" stroke="none" 
	d="
M23.636755,88.303040 
	C23.857182,88.591568 23.725960,88.849472 23.236179,89.056618 
	C22.981043,88.736931 23.116869,88.492455 23.636755,88.303040 
z"/>
<path fill="#D645EA" opacity="1.000000" stroke="none" 
	d="
M62.957813,173.313766 
	C63.289658,173.140167 63.637203,173.273895 64.027267,173.697601 
	C63.704369,173.865417 63.338943,173.743271 62.957813,173.313766 
z"/>
<path fill="#D551EE" opacity="1.000000" stroke="none" 
	d="
M58.740028,62.990761 
	C58.895985,63.344486 58.740482,63.685890 58.278111,64.024300 
	C58.123680,63.673687 58.276123,63.326065 58.740028,62.990761 
z"/>
<path fill="#D551EE" opacity="1.000000" stroke="none" 
	d="
M59.750080,62.018257 
	C59.914177,62.374393 59.769585,62.721066 59.313606,63.059723 
	C59.148605,62.704071 59.294998,62.356430 59.750080,62.018257 
z"/>
<path fill="#C539D7" opacity="1.000000" stroke="none" 
	d="
M60.783928,61.058548 
	C60.963551,61.443169 60.838642,61.814751 60.381245,62.129047 
	C60.192299,61.729679 60.335846,61.387596 60.783928,61.058548 
z"/>
<path fill="#C539D7" opacity="1.000000" stroke="none" 
	d="
M61.825348,60.098602 
	C61.992519,60.480843 61.866310,60.866562 61.401466,61.171974 
	C61.219212,60.761810 61.375587,60.431946 61.825348,60.098602 
z"/>
<path fill="#D954F5" opacity="1.000000" stroke="none" 
	d="
M48.883293,156.287949 
	C49.038029,156.050278 49.230801,156.072830 49.712509,156.131073 
	C50.001442,156.166779 50.324226,156.446518 50.260696,156.650421 
	C50.197170,156.854309 49.862183,157.126404 49.691334,157.260010 
	C49.320770,157.111786 49.121052,156.829971 48.883293,156.287949 
z"/>
<path fill="#CF32DD" opacity="1.000000" stroke="none" 
	d="
M27.169582,122.675972 
	C27.047171,122.951065 26.804270,122.950500 26.195900,122.937271 
	C25.750725,122.741165 25.671022,122.557724 25.811308,122.170303 
	C26.370562,122.110985 26.709829,122.255646 27.169582,122.675972 
z"/>
<path fill="#D74DF1" opacity="1.000000" stroke="none" 
	d="
M27.918770,124.344765 
	C28.300310,124.147705 28.647282,124.281845 29.021763,124.711243 
	C28.660915,124.896332 28.272558,124.786148 27.918770,124.344765 
z"/>
<path fill="#D430E1" opacity="1.000000" stroke="none" 
	d="
M94.923706,35.321957 
	C95.298988,35.130634 95.654259,35.274918 96.016396,35.728783 
	C95.650070,35.911430 95.276886,35.784496 94.923706,35.321957 
z"/>
<path fill="#D74DF1" opacity="1.000000" stroke="none" 
	d="
M28.982498,125.264618 
	C29.355225,125.079041 29.724737,125.205086 30.089663,125.641197 
	C29.716478,125.826263 29.347883,125.701256 28.982498,125.264618 
z"/>
<path fill="#D430E1" opacity="1.000000" stroke="none" 
	d="
M97.074615,38.194660 
	C97.472946,38.007973 97.859993,38.132599 98.164078,38.599724 
	C97.741852,38.796806 97.402596,38.651390 97.074615,38.194660 
z"/>
<path fill="#D430E1" opacity="1.000000" stroke="none" 
	d="
M97.704086,46.925827 
	C97.909218,47.376724 97.779060,47.734482 97.323944,48.076477 
	C97.122261,47.651367 97.245529,47.242023 97.704086,46.925827 
z"/>
<path fill="#CFB6D2" opacity="1.000000" stroke="none" 
	d="
M105.739075,160.007935 
	C101.626633,160.061295 98.016548,159.761230 94.582733,158.272675 
	C89.591675,156.109070 85.611145,153.092316 85.358543,147.091232 
	C85.082191,140.525940 88.554840,135.872330 93.955093,133.023041 
	C103.877510,127.787758 117.619904,136.516113 117.414330,147.617645 
	C117.268097,155.514557 114.039734,159.068390 105.739075,160.007935 
z"/>
<path fill="#D2BCD4" opacity="1.000000" stroke="none" 
	d="
M56.488884,162.089615 
	C55.752693,160.024109 54.305656,158.870056 52.373520,157.884247 
	C52.028412,157.929474 51.997948,157.976242 52.025738,157.977692 
	C51.079002,157.019073 51.019257,155.627655 50.228012,154.227005 
	C50.045315,153.959000 50.001644,153.999390 50.029678,153.989471 
	C48.883377,151.492401 48.224751,148.819824 47.268867,145.825974 
	C47.646702,143.771591 47.374905,142.105469 47.524704,140.466843 
	C47.999630,135.271744 51.992222,133.329010 56.212357,136.500992 
	C60.939304,140.053940 63.264927,145.191269 63.894516,150.945236 
	C64.231552,154.025467 64.336739,157.210602 63.618729,160.748245 
	C63.630657,161.184448 63.531742,161.427673 63.466118,161.541382 
	C62.924118,161.464340 62.581688,161.617859 62.091934,162.280365 
	C60.781010,163.104477 59.636150,162.984970 58.159698,162.891998 
	C57.430122,162.645813 57.040821,162.439758 56.488884,162.089615 
z"/>
<path fill="#7D4E8E" opacity="1.000000" stroke="none" 
	d="
M63.879471,160.906845 
	C63.411377,157.403976 63.378006,153.601059 62.925236,149.848755 
	C62.373096,145.272888 60.133995,141.405945 56.856842,138.218216 
	C55.176334,136.583572 53.162853,135.184967 50.649185,136.394287 
	C48.393311,137.479584 48.094448,139.658783 48.110031,141.890839 
	C48.116943,142.880844 48.139599,143.870728 48.143341,145.269379 
	C48.588074,146.587189 48.590996,147.430405 47.313648,148.152527 
	C46.855350,148.150818 46.552864,147.957687 46.391907,147.878860 
	C46.128048,147.178650 46.025146,146.557266 45.955101,145.627838 
	C47.131157,143.869293 46.773422,142.151047 46.794548,140.521332 
	C46.826302,138.072388 47.225475,135.863144 49.777637,134.738785 
	C52.528107,133.527054 55.014374,134.109940 57.159550,136.042953 
	C64.619591,142.765259 65.869522,151.281250 63.879471,160.906845 
z"/>
<path fill="#9265A4" opacity="1.000000" stroke="none" 
	d="
M78.506790,106.824066 
	C79.805962,109.342911 80.562042,111.716293 81.517845,114.006317 
	C83.776833,119.418625 87.550232,122.537338 93.774963,122.162132 
	C95.134796,122.080177 97.828278,121.227638 97.591537,123.667000 
	C97.398804,125.652946 94.872078,124.813324 93.321922,124.747734 
	C85.869667,124.432465 81.617447,120.078232 79.239853,113.423370 
	C78.571472,111.552597 77.914070,109.677895 77.199402,107.402832 
	C77.449600,106.880684 77.752045,106.760704 78.506790,106.824066 
z"/>
<path fill="#875F98" opacity="1.000000" stroke="none" 
	d="
M87.151474,87.110161 
	C86.328941,86.367859 85.719269,85.585449 85.223221,84.736649 
	C82.007004,79.233231 81.260010,79.200340 77.985481,84.472099 
	C77.338188,80.948967 78.027214,78.779274 80.154594,78.255196 
	C82.900269,77.578796 84.500137,79.176094 85.658791,81.400734 
	C86.345581,82.719391 87.002281,84.053726 87.774200,85.713417 
	C87.762596,86.395348 87.609550,86.726501 87.151474,87.110161 
z"/>
<path fill="#9466A6" opacity="1.000000" stroke="none" 
	d="
M94.185623,95.280594 
	C95.666359,95.783218 96.630348,96.482536 97.707619,96.847038 
	C104.436020,99.123596 105.738632,101.332306 104.720627,109.024544 
	C103.286949,108.533409 103.393631,107.155380 103.318352,106.143990 
	C103.013611,102.049873 101.559395,99.204048 96.945908,98.771881 
	C95.958023,98.679337 95.070885,97.511322 93.945312,96.546616 
	C93.742615,95.943825 93.731934,95.633171 94.185623,95.280594 
z"/>
<path fill="#9466A6" opacity="1.000000" stroke="none" 
	d="
M86.974998,87.509155 
	C87.088295,86.912247 87.290520,86.643517 87.684326,86.210312 
	C90.015755,88.935310 92.155609,91.824799 94.472733,94.976479 
	C94.505348,95.412178 94.360695,95.585686 93.984665,96.006836 
	C90.527962,94.239952 88.882683,90.969719 86.974998,87.509155 
z"/>
<path fill="#865E97" opacity="1.000000" stroke="none" 
	d="
M78.954834,106.595627 
	C78.657410,107.007965 78.355713,107.008514 77.600586,107.004868 
	C76.346741,103.991806 75.865173,100.943710 76.075882,97.397720 
	C76.435432,96.653313 76.802414,96.503876 77.488327,96.759933 
	C78.137337,100.037071 78.543953,103.110458 78.954834,106.595627 
z"/>
<path fill="#9466A6" opacity="1.000000" stroke="none" 
	d="
M77.781036,96.542374 
	C77.376099,96.967865 77.021469,96.972054 76.400864,96.977013 
	C76.094704,95.274559 76.054535,93.571327 76.072090,91.445236 
	C76.434708,90.673508 76.813538,90.515892 77.514465,90.808716 
	C77.778023,92.732857 77.804688,94.426964 77.781036,96.542374 
z"/>
<path fill="#865E97" opacity="1.000000" stroke="none" 
	d="
M77.831772,90.672852 
	C77.391022,91.033897 77.030685,91.029045 76.400085,91.023285 
	C76.141579,89.608025 75.599976,88.070305 77.125595,86.818123 
	C78.558922,87.758911 77.868271,89.129814 77.831772,90.672852 
z"/>
<path fill="#8A4D9A" opacity="1.000000" stroke="none" 
	d="
M58.082268,163.130859 
	C59.129723,162.604675 60.440022,162.357498 62.151699,162.077179 
	C62.663944,161.839859 62.774807,161.635666 63.195591,161.590897 
	C62.307728,163.927734 60.541229,164.336746 58.082268,163.130859 
z"/>
<path fill="#7D4E8E" opacity="1.000000" stroke="none" 
	d="
M63.486198,161.718842 
	C63.346622,161.800690 63.187733,161.851089 62.790958,161.972778 
	C62.605507,161.766418 62.769035,161.594040 63.222076,161.591003 
	C63.400497,161.655090 63.466881,161.687393 63.486198,161.718842 
z"/>
<path fill="#8A4D9A" opacity="1.000000" stroke="none" 
	d="
M46.929447,148.471939 
	C47.221939,147.558090 47.588524,146.965363 48.043343,146.025360 
	C48.829929,148.185303 49.528282,150.692505 50.142174,153.589630 
	C49.533092,153.427917 49.008476,152.876312 48.279922,152.110245 
	C47.718506,150.861557 47.361023,149.827301 46.929447,148.471939 
z"/>
<path fill="#8A4D9A" opacity="1.000000" stroke="none" 
	d="
M49.990082,154.323380 
	C51.680023,154.477570 51.966946,155.912109 52.185768,157.641113 
	C51.579967,157.720963 51.106411,157.462769 50.415009,157.029449 
	C50.197170,156.854309 50.135544,156.498138 50.068493,156.332458 
	C49.979244,155.673767 49.957047,155.180771 49.990082,154.323380 
z"/>
</svg>